<?xml version="1.0" encoding="UTF-8" standalone="no"?>
<svg
   width="1500"
   height="1500"
   version="1.1"
   id="svg22"
   xmlns:inkscape="http://www.inkscape.org/namespaces/inkscape"
   xmlns:sodipodi="http://sodipodi.sourceforge.net/DTD/sodipodi-0.dtd"
   xmlns="http://www.w3.org/2000/svg"
   xmlns:svg="http://www.w3.org/2000/svg">
  <sodipodi:namedview
     id="namedview24"
     pagecolor="#ffffff"
     bordercolor="#000000"
     borderopacity="0.25"
     inkscape:showpageshadow="2"
     inkscape:pageopacity="0.0"
     inkscape:pagecheckerboard="0"
     inkscape:deskcolor="#d1d1d1" />
  <defs
     id="defs16">
    <mask
       id="overlay_mask">
      <g
         fill="white"
         id="g13">
        <g
           transform="translate(323.5714285714286, 321.42857142857144) scale(2.142857142857143)"
           id="g11">
          <g
             transform="translate(0, 0) scale(1 1) rotate(0)"
             fill="#fff"
             id="g9">
            <svg
               width="398"
               height="400"
               viewBox="0 0 398 400"
               version="1.1"
               id="svg7">
              <defs
                 id="defs2" />
              <g
                 id="g5">
                <path
                   style="stroke: none; stroke-width: 1; stroke-dasharray: none; stroke-linecap: butt; stroke-dashoffset: 0; stroke-linejoin: miter; stroke-miterlimit: 4;  fill-rule: nonzero; opacity: 1"
                   d="M 380.86340377071406,120.34211281299967 C 369.5325505799757,94.81739335363295 352.8752424058281,72.01032103695162 332.00844920349516,53.4502434789102 C 295.8948030808647,21.26251302076857 254.46166068261857,1.4019984827662926 205.28021008650708,0.072124413862371 C 181.9317623617987,-0.5569776905891849 159.22038005931975,2.8752122716718342 137.8707250968562,12.502863465113997 C 95.66514087415689,31.52722963644016 74.2995592761376,71.99681058356428 82.98753897179137,116.65509668184687 C 88.74501772518978,146.28660213329294 105.55558155426868,168.67148840687932 130.40113302121622,185.43427232929102 C 171.35647635279028,213.06698501849226 212.12070005769556,240.9863771476968 253.0999333426032,268.5872365657865 C 273.1595308250522,282.12487678816177 277.2924927517655,302.13669436394355 270.03791025612793,322.283888341949 C 263.1018604716051,341.5790073177227 248.35379594699396,353.21341459118753 229.09849356010963,359.1859029245884 C 213.2594544999306,364.0992699935328 197.02224955085816,364.13112326464426 180.67355815289557,362.4986431201814 C 157.14541588574144,360.1565670608158 134.47366275749872,352.4231012701965 114.41875424103551,339.8987472665926 C 113.52012753732338,339.2581073126905 112.658695900185,338.5668350112832 111.83863928100637,337.8282846443469 C 168.601168401648,347.90188163334966 218.44357437332252,338.2503404865739 256.83472938042314,291.8241978416047 L 225.93705640229615,270.7532590013666 C 225.53894706093718,270.9275227650196 225.15774943094922,271.13811446270523 224.79830196006105,271.3823611058181 C 223.5719510222694,272.592785408054 222.32967344892202,273.7713564391784 221.16702905335333,275.061413919193 C 202.89121475314676,294.92192845719535 179.67814343066212,303.7293579195171 153.2717816792525,305.0910852595325 C 129.1747820834246,306.3015095617684 106.39172992094481,301.3005459972674 85.33671771626237,289.33964269491 C 50.99889145809643,269.765807596911 27.2443145267168,241.7588189721499 17.282203986604188,202.9694980761559 C 16.465556563483734,199.62801949594675 15.835480470761453,196.24368672786463 15.394897673249517,192.83219454493022 C 14.933025242133189,189.5990875271159 14.74190561546436,186.3341272381901 14.42337290434965,183.08509358482004 C 29.346630420073897,219.58894227856604 52.35265548033396,248.22503300777856 89.6528359518667,263.1244005701692 C 124.691434174485,277.1239132236608 158.7346176748698,275.6029195280881 190.78697173078768,254.10196152784508 C 192.5866815485858,252.89153722560917 194.28286823527165,251.50591993226018 196.36129417529514,249.9371463300202 L 148.15136834808354,216.88141423409098 C 143.7556169347005,219.3420794274521 139.75803141021086,222.37610350081977 135.24283023015983,223.97673037417118 C 122.24066248313589,228.7550557481384 107.83409857124816,227.8891031988364 95.49791120082168,221.58773504081083 C 64.8550643915864,206.45743126286203 48.86472229362786,180.57664848479172 44.96269658247264,147.52887970664037 C 40.66250498242403,111.19226068622962 50.5370190269801,78.32764821696922 73.19265810501398,49.428768001087 C 73.78194362057619,48.63243622330022 74.2995592761376,47.83610444551344 74.84902820281047,47.03977266772666 C 74.12213725861376,46.96298252317604 73.39517597917796,47.184231608221715 72.83430880500993,47.652948136622484 C 50.47331248475716,65.74560612793812 32.59566407344396,87.46953702596146 19.830465675521882,113.30253989736458 C 8.793675531807684,135.7054872307732 2.2546509094196225,160.05435839398888 0.5831266064153873,184.9723998981748 C -2.291631111394852,225.17122804085133 5.361117273136099,263.11643725239145 25.802954008922725,298.05151234389746 C 50.537019026980104,340.3845096510426 86.41972893405239,369.7213723447076 132.0654664367906,387.1928915493495 C 167.5261205016359,400.7305317717247 203.8707028398245,403.9158588828719 240.9319837780212,394.9252731116591 C 263.4920630427206,389.4704004338197 283.408320805168,379.04641746259074 298.43510145200446,360.93783283571935 C 326.9517424145491,326.5761166242198 325.94040105675987,276.0409020058708 296.6513182697621,242.28439794548925 C 286.5299413740921,230.60221076535723 274.0912390050626,221.9938642474821 261.45345369158645,213.42533431849634 C 223.65954751782596,187.81530434487354 186.06472428851205,161.91859493124747 148.3743412458638,136.18115187317878 C 139.6146916902092,130.20070022200005 132.4477056901282,122.88241118413954 129.00755241008932,112.69732774624661 C 122.23076898112384,92.60587699268616 126.79375006784208,74.76008185248445 141.1038321146705,59.54218157897909 C 155.6687403303907,44.05352850102623 174.74884972616195,38.39160956096222 195.19864977972645,37.061735492058304 C 224.5275491556135,35.15053922537003 251.91339899370084,42.41308503878546 277.6747320051032,56.245368018941825 C 281.05914206069696,58.06100447229568 284.3798455740679,60.00405401009542 288.6641105385607,62.40101266123363 C 230.7070837512389,52.20000258778499 181.86805581957574,65.11650402348654 143.63616716803247,111.24800391067468 L 174.78070299727344,132.08800653535474 C 180.7452280128964,126.45794086640218 185.96916447517768,120.51730580411281 192.14869907080308,115.85876490406015 C 216.89869072441618,97.19274803273804 245.041055751401,90.79820385711021 275.17425022285266,96.74680223717745 C 323.041753385616,106.17537048617287 357.3556896904483,132.98786144425375 375.2890813262066,179.17510455588695 C 379.0398039995823,188.810719067107 380.4572745640428,198.94802259833267 380.49709115293217,209.62683173845343 C 380.170847248224,209.38961069724425 379.86697628675597,209.1230572222723 379.58927292625526,208.83049996066666 C 379.3651927479638,208.50047041431728 379.17572641673036,208.14822315061573 379.02387736402665,207.77934201398804 C 367.3735434550061,179.11139801366403 347.96693803034225,156.97337459119154 321.18630034337286,141.8749240843542 C 285.2239572585219,121.58439038634707 249.1103111358915,121.29771094634383 213.78503347326995,144.04094651993427 C 209.66799818211229,146.69273133996424 205.94116546207016,149.9417649933343 201.433927599797,153.36599163781744 L 247.53357421587364,184.2079213914994 C 266.16773781608424,167.4212475157541 287.31034651632325,170.24822532689717 302.34509048093764,177.2639082891987 C 313.4133669149631,182.51767135320702 323.14683783755675,190.211878018172 330.813951536815,199.7682443294531 C 352.8086352392858,226.54888201642248 358.0644249726786,257.4306283589937 352.012303461499,290.66155344603607 C 348.0306445725651,312.8234668218421 339.4621146435794,333.16974374429435 325.44667535453203,351.1827685578313 C 326.1474473189844,350.7049694911592 326.85618260121464,350.2430970600428 327.54899124788915,349.74937135781505 C 341.31756768582255,339.9465271732598 352.34676280816944,327.6352378886762 361.9664506838338,313.75517500185265 C 381.41287269738694,285.69244315264655 392.37836127751086,254.4921640989605 396.14501058644237,220.87103644080275 C 400.0390729798197,186.13504429374342 395.22922904198754,152.44224677558478 380.86340377071406,120.34211281299967"
                   class="c1"
                   id="i1" />
              </g>
            </svg>
          </g>
        </g>
      </g>
    </mask>
  </defs>
  <rect
     width="100%"
     height="100%"
     fill="#143674"
     id="rect18" />
  <rect
     width="100%"
     height="100%"
     fill="#fff"
     mask="url(#overlay_mask)"
     id="rect20" />
</svg>
